@startuml
class "Task" as C_0011677418838501227690
class C_0011677418838501227690 {
{static} +to_string(const Task::Status status) : std::string
__
+operation : char
+result : int
+status : Task::Status
+value1 : int
+value2 : int
}
enum "Task::Status" as C_0001449941243350886324
enum C_0001449941243350886324 {
INCORRECT_ARGUMENTS
OVERFLOW
DIV_BY_ZERO
OK
UNKNOWN_OPERATION
UNKNOWN
}
class "DBusServer" as C_0001041919687332612532
class C_0001041919687332612532 {
+DBusServer() : void
+~DBusServer() : void
..
+async_run() : void
+run() : void
+stop() : void
__
-m_impl : std::unique_ptr<Impl>
}
class "app" as C_0007420345502791991958
class C_0007420345502791991958 {
+app(int argc, char ** argv) : void
+~app() : void
..
-parce_cli_args(int argc, char ** argv) : bool
-print_help(std::string_view app_name) : void
+run() : void
+stop() : void
__
-m_impl : std::unique_ptr<Impl>
}
class "app::Impl" as C_0001563061643105043822
class C_0001563061643105043822 {
{static} +onSignal(int signum) : void
__
+m_is_debug : bool
+m_is_run : bool
{static} +m_pipe : int[2]
+m_server : std::unique_ptr<DBusServer>
}
class "DBusServer::Impl" as C_0002175984621994193845
class C_0002175984621994193845 {
+Impl() : void
+async_run() : void
+onCalculate(const std::string & input) : std::string
+run() : void
__
+m_connection : std::unique_ptr<sdbus::IConnection>
+m_object : std::unique_ptr<sdbus::IObject>
}
class "Calculator" as C_0010420029775056024860
class C_0010420029775056024860 {
{static} +execute(Task & task) : void
__
}
C_0011677418838501227690 o-- C_0001449941243350886324 : +status
C_0001449941243350886324 --+ C_0011677418838501227690
C_0001563061643105043822 --+ C_0007420345502791991958
C_0001563061643105043822 o-- C_0001041919687332612532 : +m_server
C_0002175984621994193845 --+ C_0001041919687332612532
C_0010420029775056024860 ..> C_0011677418838501227690

'Generated with clang-uml, version 0.6.2
'LLVM version Ubuntu clang version 18.1.3 (1ubuntu1)
@enduml
